<svg xmlns="http://www.w3.org/2000/svg" viewBox="0 0 54 54" fill="none">
  <path stroke="currentColor" stroke-width="var(--icon-stroke-width)" d="m 15.530274,15.5 -2.0625,33 h 37.064452 l -2.064453,-33 h -0.46875 z m 0.937499,1 H 47.52832 l 1.9375,31 H 14.532227 Z"/>
  <path stroke="currentColor" stroke-width="var(--icon-stroke-width)" d="m 42.487304,22.890625 -0.976562,0.21875 c 0,0 0.455884,2.107073 -0.46875,4.1875 C 40.117359,29.377302 37.874024,31.5 31.999023,31.5 c -5.875,0 -8.394967,-2.140629 -9.5625,-4.242188 -1.167533,-2.101558 -0.941406,-4.203125 -0.941406,-4.203125 l -0.992188,-0.109375 c 0,0 -0.273874,2.398434 1.058594,4.796875 1.332468,2.398442 4.3125,4.757813 10.4375,4.757813 6.125,0 8.881665,-2.377302 9.957031,-4.796875 1.075367,-2.419573 0.53125,-4.8125 0.53125,-4.8125 z"/>
</svg>
